<svg width="28" height="28" viewBox="0 0 28 28" fill="#9EA2AA" xmlns="http://www.w3.org/2000/svg">
	<path d="M14.0016 0.625001C6.26567 0.621873 0 6.88441 0 14.6141C0 20.7264 3.91956 25.9223 9.37817 27.8305C10.1133 28.015 10.0007 27.4926 10.0007 27.136V24.7117C5.75578 25.2091 5.58373 22.4 5.29907 21.9308C4.72349 20.9485 3.36275 20.6983 3.76941 20.2291C4.73601 19.7317 5.72137 20.3542 6.86314 22.0403C7.68897 23.2634 9.29997 23.0569 10.1164 22.8536C10.2947 22.1185 10.6763 21.4616 11.2019 20.9517C6.80371 20.1634 4.97062 17.4794 4.97062 14.2887C4.97062 12.7403 5.48051 11.317 6.48151 10.169C5.84337 8.27644 6.54095 6.65606 6.63479 6.41519C8.45224 6.25253 10.3416 7.7165 10.4887 7.83224C11.5209 7.55384 12.7003 7.40681 14.0203 7.40681C15.3467 7.40681 16.5291 7.56009 17.5708 7.84162C17.9243 7.5726 19.676 6.31509 21.3652 6.46837C21.4559 6.70924 22.1379 8.29208 21.5373 10.1596C22.5508 11.3107 23.0669 12.7466 23.0669 14.2981C23.0669 17.4951 21.2213 20.1821 16.8106 20.9579C17.1884 21.3295 17.4884 21.7725 17.693 22.2613C17.8977 22.75 18.0028 23.2747 18.0025 23.8045V27.3237C18.0275 27.6052 18.0025 27.8836 18.4717 27.8836C24.0116 26.0161 28 20.7827 28 14.6172C28 6.88441 21.7312 0.625001 14.0016 0.625001Z"/>
</svg>