<svg width="14" height="19" viewBox="0 0 14 19" fill="white" xmlns="http://www.w3.org/2000/svg">
	<path d="M6.99988 0.710938C3.40532 0.710938 0.480957 3.6353 0.480957 7.22982C0.480957 11.6907 6.31475 18.2396 6.56313 18.5162C6.79643 18.776 7.20375 18.7756 7.43662 18.5162C7.685 18.2396 13.5188 11.6907 13.5188 7.22982C13.5187 3.6353 10.5944 0.710938 6.99988 0.710938ZM6.99988 10.5097C5.19137 10.5097 3.72008 9.03833 3.72008 7.22982C3.72008 5.42131 5.1914 3.95002 6.99988 3.95002C8.80835 3.95002 10.2796 5.42135 10.2796 7.22986C10.2796 9.03836 8.80835 10.5097 6.99988 10.5097Z"/>
</svg>