<svg width="28" height="28" viewBox="0 0 21 21" fill="#9EA2AA" xmlns="http://www.w3.org/2000/svg">
	<path d="M10.4439 0.253906H10.4389C4.92516 0.253906 0.441406 4.73891 0.441406 10.2539C0.441406 12.4414 1.14641 14.4689 2.34516 16.1152L1.09891 19.8302L4.94266 18.6014C6.52391 19.6489 8.41016 20.2539 10.4439 20.2539C15.9577 20.2539 20.4414 15.7677 20.4414 10.2539C20.4414 4.74016 15.9577 0.253906 10.4439 0.253906ZM16.2627 14.3752C16.0214 15.0564 15.0639 15.6214 14.3002 15.7864C13.7777 15.8977 13.0952 15.9864 10.7977 15.0339C7.85891 13.8164 5.96641 10.8302 5.81891 10.6364C5.67766 10.4427 4.63141 9.05516 4.63141 7.62016C4.63141 6.18516 5.36016 5.48641 5.65391 5.18641C5.89516 4.94016 6.29391 4.82766 6.67641 4.82766C6.80016 4.82766 6.91141 4.83391 7.01141 4.83891C7.30516 4.85141 7.45266 4.86891 7.64641 5.33266C7.88766 5.91391 8.47516 7.34891 8.54516 7.49641C8.61641 7.64391 8.68766 7.84391 8.58766 8.03766C8.49391 8.23766 8.41141 8.32641 8.26391 8.49641C8.11641 8.66641 7.97641 8.79641 7.82891 8.97891C7.69391 9.13766 7.54141 9.30766 7.71141 9.60141C7.88141 9.88891 8.46891 10.8477 9.33391 11.6177C10.4502 12.6114 11.3552 12.9289 11.6789 13.0639C11.9202 13.1639 12.2077 13.1402 12.3839 12.9527C12.6077 12.7114 12.8839 12.3114 13.1652 11.9177C13.3652 11.6352 13.6177 11.6002 13.8827 11.7002C14.1527 11.7939 15.5814 12.5002 15.8752 12.6464C16.1689 12.7939 16.3627 12.8639 16.4339 12.9877C16.5039 13.1114 16.5039 13.6927 16.2627 14.3752Z"/>
</svg>