<svg width="24" height="27" viewBox="0 0 24 27" fill="none" xmlns="http://www.w3.org/2000/svg">
<path d="M2.80714 24.0457L0.683594 0.668945L23.5607 0.677868L21.455 24.0279L12.1043 26.6689L2.80714 24.0457ZM19.733 22.7698L21.5086 2.74787H12.14L12.2114 24.8309L19.733 22.7698ZM11.2656 5.68336H8.99039L8.96362 17.6662L4.54701 16.4617L4.55593 19.2009L11.2656 21.0121V5.68336Z" fill="#d3b32c"/>
<path opacity="0.986" d="M10.5162 20.7883C10.2217 20.6991 8.76737 20.3065 7.28624 19.905L4.60059 19.1823V17.835C4.60059 16.5145 4.60059 16.4877 4.73442 16.5323C4.8058 16.5591 5.78727 16.8267 6.9115 17.139L8.95474 17.7011L8.97258 11.7231L8.99043 5.74512H11.221V13.347C11.221 19.3875 11.2032 20.9489 11.1407 20.9489C11.0961 20.94 10.8106 20.8686 10.5162 20.7883Z" fill="white"/>
<path fill-rule="evenodd" clip-rule="evenodd" d="M12.1401 2.73926H21.5087L19.7331 22.7612L12.1401 24.8223V2.73926ZM19.867 11.9205L19.2513 19.4064L13.0859 21.0124L13.0413 18.3L17.5025 17.1133L17.565 14.9005L13.1395 15.659L13.0413 5.71935L20.3666 5.68366L20.1703 8.41393L15.3165 8.43178V12.429L19.867 11.9205Z" fill="#f7d138"/>
<path d="M19.2513 19.4064L19.867 11.9205L15.3165 12.429V8.43178L20.1703 8.41393L20.3666 5.68366L13.0413 5.71935L13.1395 15.659L17.565 14.9005L17.5025 17.1133L13.0413 18.3L13.0859 21.0124L19.2513 19.4064Z" fill="white"/>
</svg>
