<svg width="24" height="26" viewBox="0 0 24 26" fill="none" xmlns="http://www.w3.org/2000/svg">
<g clip-path="url(#clip0)">
<path d="M23.7077 13.0022C23.7077 11.4906 21.8148 10.0581 18.9126 9.1698C19.5823 6.21179 19.2847 3.8584 17.9731 3.10495C17.6708 2.92821 17.3173 2.84449 16.9313 2.84449V3.88166C17.1452 3.88166 17.3173 3.92352 17.4615 4.00258C18.094 4.36536 18.3684 5.74669 18.1545 7.52336C18.1033 7.96055 18.0196 8.42099 17.9173 8.89074C17.0057 8.66749 16.0104 8.49541 14.9639 8.38378C14.3361 7.52336 13.6849 6.742 13.0291 6.05831C14.5454 4.64907 15.9685 3.87701 16.9359 3.87701V2.83984C15.6569 2.83984 13.9826 3.75143 12.2896 5.33276C10.5967 3.76073 8.92234 2.85845 7.64333 2.85845V3.89561C8.60608 3.89561 10.0339 4.66302 11.5501 6.06296C10.899 6.74665 10.2479 7.52336 9.62929 8.38378C8.57817 8.49541 7.58287 8.66749 6.67128 8.89539C6.56431 8.43029 6.48524 7.97915 6.42943 7.54661C6.21083 5.76995 6.48059 4.38861 7.10847 4.02119C7.248 3.93747 7.42938 3.90026 7.64333 3.90026V2.8631C7.25265 2.8631 6.89917 2.94682 6.59221 3.12355C5.28529 3.87701 4.99228 6.22574 5.66667 9.17445C2.77377 10.0674 0.890137 11.4953 0.890137 13.0022C0.890137 14.5137 2.78308 15.9462 5.68527 16.8346C5.01554 19.7926 5.3132 22.146 6.62477 22.8994C6.92708 23.0762 7.28055 23.1599 7.67123 23.1599C8.95025 23.1599 10.6246 22.2483 12.3175 20.667C14.0105 22.239 15.6848 23.1413 16.9638 23.1413C17.3545 23.1413 17.708 23.0576 18.015 22.8808C19.3219 22.1274 19.6149 19.7786 18.9405 16.8299C21.8241 15.9416 23.7077 14.5091 23.7077 13.0022ZM17.6522 9.9C17.4801 10.5 17.2662 11.1185 17.0243 11.7371C16.8336 11.365 16.6336 10.993 16.415 10.6209C16.2011 10.2488 15.9732 9.88604 15.7453 9.53257C16.4057 9.63024 17.0429 9.75117 17.6522 9.9ZM15.522 14.8533C15.1593 15.4811 14.7872 16.0765 14.4012 16.6299C13.7082 16.6904 13.0059 16.723 12.2989 16.723C11.5966 16.723 10.8943 16.6904 10.206 16.6346C9.81998 16.0811 9.44325 15.4904 9.08047 14.8672C8.727 14.2579 8.40609 13.6394 8.11308 13.0161C8.40143 12.3929 8.727 11.7697 9.07582 11.1604C9.4386 10.5325 9.81067 9.9372 10.1967 9.38374C10.8897 9.32328 11.592 9.29072 12.2989 9.29072C13.0012 9.29072 13.7035 9.32328 14.3919 9.37909C14.7779 9.93255 15.1546 10.5232 15.5174 11.1465C15.8709 11.7557 16.1918 12.3743 16.4848 12.9975C16.1918 13.6208 15.8709 14.244 15.522 14.8533ZM17.0243 14.2486C17.2755 14.8719 17.4894 15.4951 17.6661 16.0997C17.0569 16.2486 16.415 16.3741 15.7499 16.4718C15.9778 16.1137 16.2057 15.7463 16.4197 15.3695C16.6336 14.9974 16.8336 14.6207 17.0243 14.2486ZM12.3082 19.2112C11.8757 18.7647 11.4432 18.2671 11.0153 17.7229C11.4339 17.7415 11.8617 17.7555 12.2943 17.7555C12.7315 17.7555 13.164 17.7462 13.5873 17.7229C13.1687 18.2671 12.7361 18.7647 12.3082 19.2112ZM8.84793 16.4718C8.18749 16.3741 7.55031 16.2532 6.94103 16.1044C7.11312 15.5044 7.32706 14.8858 7.56891 14.2672C7.7596 14.6393 7.95959 15.0114 8.17819 15.3835C8.39678 15.7556 8.62003 16.1183 8.84793 16.4718ZM12.285 6.79316C12.7175 7.23965 13.1501 7.7373 13.578 8.28146C13.1594 8.26286 12.7315 8.24891 12.2989 8.24891C11.8617 8.24891 11.4292 8.25821 11.006 8.28146C11.4246 7.7373 11.8571 7.23965 12.285 6.79316ZM8.84328 9.53257C8.61538 9.8907 8.38748 10.2581 8.17354 10.6348C7.95959 11.0069 7.7596 11.379 7.56891 11.7511C7.31776 11.1279 7.10382 10.5046 6.92708 9.9C7.53636 9.75582 8.17819 9.63024 8.84328 9.53257ZM4.63416 15.3556C2.98772 14.6533 1.92265 13.7324 1.92265 13.0022C1.92265 12.272 2.98772 11.3464 4.63416 10.6488C5.03414 10.4767 5.47133 10.3232 5.92247 10.1791C6.18758 11.0906 6.5364 12.0394 6.96894 13.0115C6.54105 13.9789 6.19688 14.923 5.93643 15.83C5.47598 15.6858 5.03879 15.5277 4.63416 15.3556ZM7.13637 22.0018C6.50384 21.639 6.22944 20.2577 6.44338 18.481C6.49454 18.0438 6.57826 17.5834 6.68058 17.1136C7.59217 17.3369 8.58747 17.509 9.63394 17.6206C10.2618 18.481 10.913 19.2624 11.5687 19.9461C10.0525 21.3553 8.62933 22.1274 7.66193 22.1274C7.45264 22.1227 7.2759 22.0809 7.13637 22.0018ZM18.1684 18.4578C18.387 20.2344 18.1173 21.6158 17.4894 21.9832C17.3499 22.0669 17.1685 22.1041 16.9545 22.1041C15.9918 22.1041 14.564 21.3367 13.0477 19.9368C13.6989 19.2531 14.35 18.4764 14.9686 17.6159C16.0197 17.5043 17.015 17.3322 17.9266 17.1043C18.0336 17.5741 18.1173 18.0252 18.1684 18.4578ZM19.9591 15.3556C19.5591 15.5277 19.1219 15.6811 18.6707 15.8253C18.4056 14.9137 18.0568 13.9649 17.6243 12.9929C18.0522 12.0255 18.3963 11.0813 18.6568 10.1744C19.1172 10.3186 19.5544 10.4767 19.9637 10.6488C21.6102 11.3511 22.6752 12.272 22.6752 13.0022C22.6706 13.7324 21.6055 14.6579 19.9591 15.3556Z" fill="#05d5f7"/>
<path d="M12.2944 15.1279C13.4683 15.1279 14.4199 14.1763 14.4199 13.0024C14.4199 11.8286 13.4683 10.877 12.2944 10.877C11.1205 10.877 10.1689 11.8286 10.1689 13.0024C10.1689 14.1763 11.1205 15.1279 12.2944 15.1279Z" fill="#05d5f7"/>
</g>
<defs>
<clipPath id="clip0">
<rect width="22.8176" height="26" fill="white" transform="translate(0.890137)"/>
</clipPath>
</defs>
</svg>
