<svg width="18" height="19" viewBox="0 0 18 19" fill="white" xmlns="http://www.w3.org/2000/svg">
	<path d="M11.25 5.58594C10.836 5.58594 10.5 5.24994 10.5 4.83594V3.71094H7.5V4.83594C7.5 5.24994 7.164 5.58594 6.75 5.58594C6.336 5.58594 6 5.24994 6 4.83594V3.71094C6 2.88369 6.67275 2.21094 7.5 2.21094H10.5C11.3272 2.21094 12 2.88369 12 3.71094V4.83594C12 5.24994 11.664 5.58594 11.25 5.58594Z"/>
	<path d="M9.5325 12.2458C9.3975 12.2983 9.2025 12.3358 9 12.3358C8.7975 12.3358 8.6025 12.2983 8.4225 12.2308L0 9.42578V15.1483C0 16.2883 0.9225 17.2108 2.0625 17.2108H15.9375C17.0775 17.2108 18 16.2883 18 15.1483V9.42578L9.5325 12.2458Z"/>
	<path d="M18 6.52344V8.24094L9.18 11.1809C9.12 11.2034 9.06 11.2109 9 11.2109C8.94 11.2109 8.88 11.2034 8.82 11.1809L0 8.24094V6.52344C0 5.38344 0.9225 4.46094 2.0625 4.46094H15.9375C17.0775 4.46094 18 5.38344 18 6.52344Z"/>
</svg>