<svg width="28" height="28" viewBox="0 0 28 28" fill="#9EA2AA" xmlns="http://www.w3.org/2000/svg">
	<g transform="translate(0,-.2)">
		<path d="M27.9935 28.2535V28.2523H28.0005V17.9833C28.0005 12.9597 26.919 9.08984 21.046 9.08984C18.2226 9.08984 16.328 10.6392 15.5545 12.108H15.4728V9.55884H9.9043V28.2523H15.7026V18.996C15.7026 16.5588 16.1646 14.2022 19.1828 14.2022C22.1567 14.2022 22.201 16.9835 22.201 19.1523V28.2535H27.9935Z"/>
		<path d="M0.461914 9.56055H6.26725V28.254H0.461914V9.56055Z"/>
		<path d="M3.36233 0.253906C1.50617 0.253906 0 1.76007 0 3.61624C0 5.47241 1.50617 7.01007 3.36233 7.01007C5.2185 7.01007 6.72467 5.47241 6.72467 3.61624C6.7235 1.76007 5.21733 0.253906 3.36233 0.253906V0.253906Z"/>
	</g>
</svg>
