<svg width="28" height="28" viewBox="0 0 28 28" fill="#9EA2AA" xmlns="http://www.w3.org/2000/svg">
	<g transform="translate(1.5,-.2)">
		<path d="M19.4286 19.9682C18 21.111 16 21.9682 14 21.9682C9.42858 21.9682 6.28571 18.5396 6.28571 13.9682C6.28571 9.39676 9.42858 6.2539 14 6.2539C16 6.2539 18 6.82533 19.4286 8.2539L20.2857 9.11105L24.8571 4.82533L23.7143 3.96819C21.1429 1.68247 17.7143 0.253906 14 0.253906C6.00001 0.253906 0 6.2539 0 14.2539C0 22.2539 6.00001 28.2539 14 28.2539C17.7143 28.2539 21.1429 26.8253 23.7143 24.5396L24.8571 23.6825L20.2857 19.111L19.4286 19.9682Z"/>
		<path d="M13.714 18.8245C16.2387 18.8245 18.2854 16.7778 18.2854 14.2531C18.2854 11.7283 16.2387 9.68164 13.714 9.68164C11.1893 9.68164 9.14258 11.7283 9.14258 14.2531C9.14258 16.7778 11.1893 18.8245 13.714 18.8245Z"/>
	</g>
</svg>