<svg width="27" height="27" viewBox="0 0 27 27" fill="none" xmlns="http://www.w3.org/2000/svg">
<g clip-path="url(#clip0)">
<path d="M2.62554 0.535156C2.38656 0.535156 2.20852 0.729903 2.22974 0.967866L4.2443 23.5645C4.26553 23.8025 4.47119 24.0496 4.70154 24.1135L13.2503 26.4872C13.4806 26.5511 13.8573 26.5511 14.0877 26.4873L22.6625 24.1098C22.8928 24.0459 23.0987 23.7989 23.1198 23.5609L25.1378 0.967866C25.1591 0.729903 24.9809 0.535156 24.7419 0.535156H2.62554ZM20.8475 5.71762C20.8284 5.92988 20.7955 6.29841 20.7743 6.53642L20.7212 7.12929C20.6999 7.3672 20.6694 7.70749 20.6534 7.88538C20.6374 8.06332 20.6222 8.20891 20.6194 8.20891C20.6167 8.20891 20.4189 8.20891 20.18 8.20891H14.1182C13.8792 8.20891 13.6817 8.20891 13.6792 8.20891C13.6766 8.20891 13.4789 8.20891 13.2399 8.20891H10.0474C9.80838 8.20891 9.63034 8.40366 9.65157 8.64162L9.83778 10.7232C9.85901 10.9611 10.072 11.1559 10.3109 11.1559H13.2399C13.4789 11.1559 13.6766 11.1559 13.6792 11.1559C13.6818 11.1559 13.8793 11.1559 14.1183 11.1559H19.1528C19.3918 11.1559 19.7616 11.1559 19.9746 11.1559C20.1874 11.1559 20.3459 11.3296 20.3266 11.5419C20.3072 11.7541 20.2741 12.1227 20.2529 12.3607L19.6542 19.0714C19.6328 19.3095 19.6058 19.6135 19.5941 19.7471C19.5823 19.8807 19.3842 20.0422 19.1539 20.1061L14.1025 21.5068C13.8722 21.5705 13.6809 21.6234 13.6773 21.6242C13.6737 21.6249 13.4825 21.5732 13.2521 21.5094L8.19526 20.1062C7.96496 20.0423 7.75919 19.7953 7.73802 19.5573L7.41251 15.9038C7.39128 15.6658 7.56953 15.4711 7.8085 15.4711H8.27001C8.50898 15.4711 8.9 15.4711 9.13893 15.4711H9.82712C10.0661 15.4711 10.2789 15.6658 10.3003 15.9038L10.4279 17.334C10.4491 17.5721 10.6552 17.8177 10.8859 17.88L13.2513 18.5188C13.4819 18.5811 13.6715 18.6321 13.6726 18.6321C13.6736 18.6321 13.8631 18.581 14.0938 18.5187L16.4635 17.8784C16.6941 17.8161 16.9003 17.5703 16.9217 17.3324L17.1786 14.467C17.2 14.229 17.0219 14.0342 16.783 14.0342H14.1183C13.8793 14.0342 13.6818 14.0342 13.6792 14.0342C13.6766 14.0342 13.4789 14.0342 13.2399 14.0342H7.67967C7.44069 14.0342 7.22792 13.8394 7.20669 13.6015L6.57619 6.53647C6.55496 6.29846 6.52205 5.93004 6.50301 5.71767C6.48417 5.5054 6.66409 5.33168 6.90307 5.33168H13.2399C13.4789 5.33168 13.6766 5.33168 13.6792 5.33168C13.6818 5.33168 13.8793 5.33168 14.1183 5.33168H20.4475C20.6864 5.33157 20.8664 5.50525 20.8475 5.71762Z" fill="#dc4a25"/>
</g>
<defs>
<clipPath id="clip0">
<rect width="26" height="26" fill="white" transform="translate(0.683594 0.535156)"/>
</clipPath>
</defs>
</svg>
