<svg width="15" height="14" viewBox="0 0 15 14" fill="none" xmlns="http://www.w3.org/2000/svg">
<g clip-path="url(#clip0)">
<path d="M6.18773 0.437988C3.05182 0.437988 0.50039 2.59655 0.50039 5.25036C0.50039 6.33883 0.929128 7.38092 1.71661 8.2279L0.628136 9.31637C0.503014 9.44149 0.46539 9.62961 0.533639 9.79323C0.601012 9.95598 0.761132 10.0627 0.937878 10.0627H6.18773C9.32365 10.0627 11.8751 7.90416 11.8751 5.25036C11.8751 2.59655 9.32365 0.437988 6.18773 0.437988Z" fill="#1E2532"/>
<path d="M13.2832 11.7275C14.0706 10.8814 14.4994 9.83843 14.4994 8.74996C14.4994 7.3885 13.8248 6.16003 12.7477 5.28418C12.7258 8.40434 9.79289 10.9374 6.18711 10.9374H3.75293C4.69615 12.4931 6.60798 13.5623 8.81204 13.5623H14.0619C14.2386 13.5623 14.3988 13.4556 14.4661 13.292C14.5335 13.1283 14.4959 12.9402 14.3716 12.8151L13.2832 11.7275Z" fill="#1E2532"/>
</g>
<defs>
<clipPath id="clip0">
<rect width="14" height="14" fill="white" transform="translate(0.5)"/>
</clipPath>
</defs>
</svg>
