<svg width="15" height="14" viewBox="0 0 15 14" fill="none" xmlns="http://www.w3.org/2000/svg">
<path d="M14.7605 5.18973C14.3536 5.47059 13.9467 5.75145 13.5399 6.03231C13.2287 6.24637 12.9189 6.46043 12.6077 6.67449C11.9914 7.09958 11.3765 7.52314 10.7601 7.94823C10.1377 8.37787 9.51675 8.80599 8.89431 9.23562C8.67721 9.38592 8.46012 9.5347 8.24302 9.685C8.13827 9.75787 8.0244 9.82467 7.92421 9.90513C7.91965 9.90817 7.9151 9.91121 7.90902 9.91576C7.96064 9.91576 8.01074 9.91576 8.06236 9.91576C7.79364 9.73054 7.52645 9.54533 7.25773 9.36011C6.65806 8.94566 6.05687 8.5312 5.4572 8.11826C4.82564 7.68255 4.19257 7.24684 3.56102 6.80961C3.19666 6.55911 2.8323 6.3071 2.46946 6.0566C2.0717 5.78181 1.67547 5.50855 1.27771 5.23376C1.25645 5.2201 1.23672 5.20491 1.21546 5.19125C1.21546 5.2793 1.21546 5.36584 1.21546 5.45389C1.44319 5.29752 1.67243 5.13963 1.90015 4.98326C2.44365 4.6098 2.98867 4.23481 3.53217 3.86134C4.19257 3.40741 4.85145 2.955 5.51185 2.50107C6.08268 2.10939 6.65199 1.7177 7.22282 1.32602C7.40955 1.19698 7.5978 1.06793 7.78454 0.940407C7.87259 0.879681 7.96975 0.825027 8.05173 0.75671C8.05477 0.753673 8.05932 0.750637 8.06388 0.749119C8.01226 0.749119 7.96216 0.749119 7.91054 0.749119C8.13827 0.905489 8.36751 1.06338 8.59523 1.21975C9.13873 1.59322 9.68375 1.9682 10.2273 2.34167C10.8877 2.7956 11.5465 3.24801 12.2069 3.70194C12.7778 4.09362 13.3471 4.48531 13.9179 4.87699C14.1046 5.00604 14.2929 5.13508 14.4796 5.2626C14.5677 5.32333 14.6557 5.39013 14.7468 5.4463C14.7514 5.44934 14.7544 5.45237 14.759 5.45389C14.8273 5.50096 14.9275 5.46604 14.9669 5.39924C15.011 5.32333 14.9806 5.23831 14.9123 5.19125C14.6846 5.03488 14.4553 4.87699 14.2276 4.72062C13.6841 4.34715 13.1391 3.97217 12.5956 3.5987C11.9352 3.14477 11.2763 2.69236 10.6159 2.23843C10.0451 1.84675 9.47576 1.45506 8.90494 1.06338C8.7182 0.934334 8.52995 0.805291 8.34322 0.677765C8.25517 0.617039 8.16711 0.55024 8.07602 0.494068C8.07147 0.491032 8.06843 0.487996 8.06388 0.486478C8.02289 0.457632 7.95153 0.457632 7.91054 0.486478C7.68282 0.642848 7.45358 0.800736 7.22585 0.957107C6.68235 1.33057 6.13733 1.70556 5.59383 2.07903C4.93343 2.53296 4.27455 2.98537 3.61415 3.4393C3.04333 3.83098 2.47402 4.22267 1.90319 4.61435C1.62688 4.80412 1.34754 4.99085 1.07427 5.18366C1.06972 5.1867 1.06668 5.18973 1.06213 5.19125C0.964967 5.25805 0.964967 5.38709 1.06213 5.45389C1.469 5.73475 1.87586 6.01561 2.28273 6.29647C2.59395 6.51053 2.90366 6.72459 3.21488 6.93865C3.83125 7.36374 4.4461 7.7873 5.06248 8.21239C5.68492 8.64202 6.30585 9.07015 6.92829 9.49978C7.14539 9.65008 7.36249 9.79886 7.57958 9.94916C7.68585 10.022 7.78909 10.0995 7.8984 10.1693C7.90295 10.1723 7.90751 10.1754 7.91358 10.1799C7.95457 10.2088 8.02592 10.2088 8.06691 10.1799C8.33563 9.9947 8.60282 9.80949 8.87154 9.62427C9.47121 9.20982 10.0724 8.79536 10.6721 8.38242C11.3036 7.94671 11.9367 7.511 12.5683 7.07377C12.9326 6.82327 13.297 6.57126 13.6598 6.32076C14.0576 6.04597 14.4538 5.77271 14.8516 5.49792C14.8728 5.48426 14.8926 5.46907 14.9138 5.45541C14.9806 5.40835 15.0125 5.32181 14.9685 5.24742C14.929 5.17759 14.8288 5.14267 14.7605 5.18973Z" fill="#1E2532"/>
<path d="M14.8365 8.66013L7.98806 13.3846L1.13965 8.66013L2.35266 7.82666L7.98806 11.7147L13.6235 7.82666L14.8365 8.66013Z" fill="#1E2532"/>
<path d="M14.8365 5.32153L13.6235 6.15803L7.98806 10.046L2.35266 6.15803L1.13965 5.32153L7.98806 0.615234L14.8365 5.32153Z" fill="#1E2532"/>
<path d="M14.7609 8.52795C14.5332 8.68584 14.3055 8.84221 14.0777 9.0001C13.5327 9.3766 12.9877 9.75159 12.4427 10.1281C11.7838 10.582 11.1249 11.0375 10.466 11.4914C9.89521 11.8846 9.32438 12.2793 8.75204 12.6725C8.5653 12.8016 8.37857 12.9306 8.19184 13.0597C8.10378 13.1204 8.00814 13.1766 7.92464 13.2434C7.9216 13.2464 7.91705 13.2494 7.91249 13.2509C7.96411 13.2509 8.01421 13.2509 8.06583 13.2509C7.8381 13.0931 7.61038 12.9367 7.38266 12.7788C6.83764 12.4023 6.29262 12.0273 5.7476 11.6508C5.08872 11.1969 4.42984 10.7414 3.77096 10.2875C3.20013 9.8943 2.6293 9.49958 2.05696 9.10637C1.87022 8.97733 1.68349 8.84829 1.49676 8.71924C1.4087 8.65852 1.32217 8.5902 1.22956 8.53554C1.22501 8.53251 1.22197 8.52947 1.21742 8.52795C1.21742 8.61601 1.21742 8.70254 1.21742 8.7906C1.57115 8.54769 1.92336 8.30478 2.27709 8.0634C2.32871 8.02848 2.37881 7.99356 2.43042 7.95713C2.37881 7.95713 2.32871 7.95713 2.27709 7.95713C2.46382 8.08617 2.65056 8.21369 2.83577 8.34274C3.28515 8.65244 3.73604 8.96367 4.18542 9.27337C4.7274 9.64684 5.26938 10.0218 5.81136 10.3953C6.28047 10.7187 6.74959 11.042 7.21718 11.3654C7.4449 11.5218 7.66655 11.6933 7.90187 11.8375C7.9049 11.8391 7.90794 11.8421 7.91249 11.8436C7.95349 11.8725 8.02484 11.8725 8.06583 11.8436C8.25256 11.7146 8.4393 11.587 8.62451 11.458C9.07389 11.1483 9.52478 10.8371 9.97415 10.5274C10.5161 10.1539 11.0581 9.77892 11.6001 9.40545C12.0692 9.08208 12.5383 8.75871 13.0059 8.43535C13.1608 8.32908 13.3156 8.2228 13.4705 8.11501C13.5433 8.06492 13.6238 8.01937 13.6906 7.9632C13.6936 7.96016 13.6967 7.95864 13.7012 7.95713C13.6496 7.95713 13.5995 7.95713 13.5479 7.95713C13.9016 8.20003 14.2538 8.44294 14.6076 8.68432C14.6592 8.71924 14.7093 8.75416 14.7609 8.7906C14.8292 8.83766 14.9294 8.80274 14.9689 8.73594C15.0129 8.66003 14.9826 8.57502 14.9142 8.52795C14.5605 8.28505 14.2083 8.04214 13.8546 7.80076C13.8029 7.76584 13.7529 7.73092 13.7012 7.69449C13.6602 7.66564 13.5889 7.66564 13.5479 7.69449C13.3612 7.82353 13.1744 7.95105 12.9892 8.0801C12.5398 8.3898 12.0889 8.70102 11.6396 9.01073C11.0976 9.38419 10.5556 9.75918 10.0136 10.1326C9.54452 10.456 9.0754 10.7794 8.60781 11.1028C8.45296 11.209 8.29811 11.3153 8.14325 11.4231C8.07038 11.4732 7.98992 11.5187 7.92312 11.5749C7.92009 11.5779 7.91705 11.5795 7.91249 11.581C7.96411 11.581 8.01421 11.581 8.06583 11.581C7.87909 11.4519 7.69236 11.3244 7.50715 11.1954C7.05777 10.8857 6.60688 10.5744 6.1575 10.2647C5.61552 9.89126 5.07354 9.51627 4.53156 9.14281C4.06244 8.81944 3.59333 8.49607 3.12574 8.17271C2.89802 8.01633 2.67637 7.84478 2.44105 7.70056C2.43802 7.69904 2.43498 7.696 2.43042 7.69449C2.38943 7.66564 2.31808 7.66564 2.27709 7.69449C1.92336 7.93739 1.57115 8.1803 1.21742 8.42168C1.1658 8.4566 1.1157 8.49152 1.06408 8.52795C0.96692 8.59475 0.96692 8.7238 1.06408 8.7906C1.29181 8.94848 1.51953 9.10485 1.74725 9.26274C2.29227 9.63925 2.83729 10.0142 3.38231 10.3907C4.04119 10.8447 4.70007 11.3001 5.35895 11.754C5.92978 12.1472 6.50061 12.542 7.07295 12.9352C7.25969 13.0642 7.44642 13.1933 7.63315 13.3223C7.72121 13.383 7.80774 13.4498 7.90035 13.506C7.9049 13.509 7.90794 13.5121 7.91249 13.5136C7.95349 13.5424 8.02484 13.5424 8.06583 13.5136C8.29355 13.3557 8.52128 13.1993 8.749 13.0414C9.29402 12.6649 9.83904 12.2899 10.3841 11.9134C11.0429 11.4595 11.7018 11.0056 12.3607 10.5501C12.9315 10.1569 13.5024 9.76222 14.0747 9.36901C14.351 9.17924 14.6288 8.99251 14.9021 8.79819C14.9067 8.79515 14.9097 8.79211 14.9142 8.7906C14.981 8.74353 15.0129 8.657 14.9689 8.58261C14.9294 8.51581 14.8292 8.48089 14.7609 8.52795Z" fill="#1E2532"/>
</svg>
