<svg width="24" height="26" viewBox="0 0 24 26" fill="none" xmlns="http://www.w3.org/2000/svg">
<g clip-path="url(#clip0)">
<path d="M10.8558 0.329892C11.4977 -0.0375192 12.3338 -0.0391788 12.9751 0.329892C16.2016 2.15303 19.4291 3.9733 22.655 5.79754C23.2618 6.13932 23.6676 6.81459 23.6615 7.51373V18.4824C23.666 19.2105 23.22 19.9019 22.5799 20.2359C19.364 22.049 16.1498 23.8643 12.9344 25.6774C12.2793 26.052 11.4264 26.0231 10.7917 25.6178C9.82762 25.0589 8.86184 24.5028 7.89762 23.9444C7.7006 23.827 7.47849 23.7335 7.33936 23.5425C7.46236 23.3767 7.68225 23.356 7.86093 23.2836C8.26338 23.1557 8.633 22.9503 9.00272 22.7509C9.09621 22.6869 9.21035 22.7115 9.29996 22.7687C10.1244 23.2414 10.9416 23.7279 11.7688 24.196C11.9452 24.2979 12.1239 24.1627 12.2748 24.0786C15.4305 22.295 18.5902 20.5182 21.7454 18.734C21.8623 18.6778 21.9269 18.5537 21.9174 18.4256C21.9196 14.8073 21.918 11.1883 21.9185 7.56997C21.9319 7.42467 21.8478 7.29107 21.7164 7.2316C18.5117 5.42681 15.3086 3.61926 12.1045 1.81401C12.0489 1.77585 11.9832 1.75537 11.9158 1.75527C11.8484 1.75517 11.7826 1.77546 11.727 1.81346C8.52282 3.61926 5.32031 5.42847 2.11613 7.23317C1.98521 7.29273 1.89734 7.42411 1.91292 7.56997C1.91348 11.1883 1.91292 14.8073 1.91292 18.4262C1.90737 18.4887 1.92109 18.5513 1.95225 18.6058C1.9834 18.6602 2.03049 18.7038 2.08718 18.7307C2.94223 19.2156 3.79838 19.697 4.65399 20.1802C5.136 20.4397 5.72782 20.5938 6.25889 20.3951C6.72753 20.227 7.05604 19.7488 7.04709 19.2512C7.05152 15.6539 7.04488 12.0562 7.05041 8.4595C7.0387 8.29981 7.19019 8.16788 7.34545 8.18291C7.75628 8.18014 8.16767 8.17737 8.57851 8.18401C8.75 8.18014 8.86801 8.35209 8.84681 8.51298C8.84515 12.133 8.85123 15.7531 8.84404 19.373C8.84515 20.3378 8.44879 21.3876 7.5564 21.8596C6.45702 22.4292 5.0982 22.3084 4.0121 21.7623C3.07186 21.293 2.17458 20.7392 1.25103 20.2364C0.609235 19.9042 0.165483 19.21 0.170001 18.4825V7.51373C0.163271 6.80011 0.585264 6.11259 1.21092 5.77579C4.42626 3.96123 7.64104 2.14528 10.8558 0.329892Z" fill="#649a60"/>
<path d="M13.661 7.92833C15.0634 7.83807 16.5646 7.87486 17.8266 8.56571C18.8036 9.09512 19.3453 10.2062 19.3625 11.2917C19.3352 11.4381 19.1822 11.5189 19.0424 11.5088C18.6355 11.5083 18.2286 11.5143 17.8217 11.506C17.6491 11.5127 17.5488 11.3535 17.5271 11.201C17.4102 10.6816 17.127 10.1672 16.6381 9.91671C15.8877 9.541 15.0176 9.5599 14.1994 9.56773C13.602 9.59945 12.9597 9.65117 12.4536 10.0025C12.065 10.2685 11.947 10.8057 12.0857 11.2383C12.2164 11.5489 12.575 11.6491 12.8684 11.7415C14.5584 12.1835 16.3493 12.1395 18.007 12.7212C18.6933 12.9584 19.3647 13.4194 19.5997 14.138C19.907 15.1011 19.7723 16.2523 19.087 17.0255C18.5313 17.6618 17.722 18.0081 16.9148 18.1961C15.841 18.4356 14.7266 18.4417 13.636 18.3354C12.6106 18.2185 11.5435 17.949 10.7519 17.2504C10.0749 16.6626 9.7443 15.7468 9.77713 14.8629C9.78496 14.7136 9.93359 14.6095 10.0766 14.6217C10.4863 14.6184 10.8961 14.6173 11.3058 14.6223C11.4694 14.6106 11.5908 14.752 11.5992 14.9063C11.6748 15.4011 11.8607 15.9205 12.2922 16.2139C13.125 16.7511 14.1699 16.7143 15.1234 16.7293C15.9133 16.6943 16.8001 16.6837 17.4448 16.1616C17.7849 15.8638 17.8857 15.3655 17.7937 14.9369C17.6942 14.575 17.3156 14.4064 16.9905 14.2961C15.3222 13.7683 13.5113 13.9598 11.8591 13.363C11.1883 13.126 10.5397 12.6778 10.282 11.9887C9.92243 11.0134 10.0872 9.80708 10.8442 9.05999C11.5824 8.31686 12.6479 8.03067 13.661 7.92824V7.92833Z" fill="#649a60"/>
</g>
<defs>
<clipPath id="clip0">
<rect width="23.608" height="26" fill="white" transform="translate(0.114258)"/>
</clipPath>
</defs>
</svg>
