<svg width="23" height="23" viewBox="0 0 23 23" fill="#1E2532" fill-opacity=".2" xmlns="http://www.w3.org/2000/svg">
	<path d="M10.1396 11.5995L3.11464 7.78165C2.80216 7.61192 2.43316 7.61893 2.12739 7.80069C1.82162 7.98242 1.63916 8.30328 1.63916 8.659V17.5155C1.63916 17.8738 1.83266 18.2064 2.14419 18.3836L9.16925 22.3773C9.32411 22.4653 9.49346 22.5093 9.66285 22.5093C9.83547 22.5093 10.008 22.4636 10.165 22.3723C10.4758 22.1914 10.6613 21.8688 10.6613 21.5091V12.4768C10.6613 12.1106 10.4615 11.7744 10.1396 11.5995Z"/>
	<path d="M19.9945 5.47748C19.9941 5.10354 19.7875 4.76437 19.4556 4.59232L11.7951 0.620852C11.5051 0.470417 11.1594 0.471534 10.8704 0.623646L3.32259 4.59511C2.99396 4.76811 2.78954 5.10625 2.78906 5.47765C2.78863 5.84897 2.99224 6.18758 3.3204 6.36131L10.8682 10.3576C11.0144 10.4349 11.1748 10.4736 11.3354 10.4736C11.4939 10.4736 11.6525 10.4358 11.7972 10.3603L19.4578 6.36415C19.7894 6.19119 19.9951 5.85142 19.9945 5.47748Z"/>
	<path d="M20.781 7.79979C20.4754 7.61802 20.1062 7.61084 19.7939 7.78071L12.7687 11.5986C12.4469 11.7735 12.2471 12.1096 12.2471 12.4759V21.5082C12.2471 21.8678 12.4326 22.1905 12.7434 22.3713C12.9004 22.4626 13.0729 22.5083 13.2455 22.5083C13.4149 22.5083 13.5843 22.4643 13.7391 22.3763L20.7642 18.3826C21.0758 18.2055 21.2692 17.8728 21.2692 17.5145V8.65809C21.2692 8.30238 21.0868 7.98152 20.781 7.79979Z"/>
</svg>