<svg width="26" height="26" viewBox="0 0 26 26" fill="none" xmlns="http://www.w3.org/2000/svg">
<g clip-path="url(#clip0)">
<path d="M25.1049 5.93203C25.1142 5.96648 25.119 6.002 25.1191 6.03769V11.5846C25.1191 11.6558 25.1003 11.7257 25.0646 11.7873C25.0289 11.8489 24.9776 11.9 24.9158 11.9354L20.2603 14.6158V19.9286C20.2603 20.0732 20.1834 20.2067 20.058 20.2795L10.3399 25.8739C10.3176 25.8865 10.2934 25.8946 10.2691 25.9032C10.26 25.9062 10.2514 25.9118 10.2418 25.9143C10.1739 25.9322 10.1025 25.9322 10.0345 25.9143C10.0234 25.9113 10.0133 25.9052 10.0027 25.9012C9.98045 25.8931 9.95719 25.886 9.93596 25.8739L0.219832 20.2795C0.158108 20.244 0.106822 20.1929 0.0711424 20.1313C0.0354627 20.0697 0.0166505 19.9998 0.0166016 19.9286L0.0166016 3.28801C0.0166016 3.25161 0.021657 3.21623 0.0307569 3.18185C0.0337902 3.17022 0.0408679 3.1596 0.0449122 3.14798C0.0524955 3.12674 0.0595731 3.10501 0.0706952 3.08529C0.0782784 3.07214 0.0894005 3.06153 0.0985003 3.04939C0.110128 3.03322 0.120744 3.01653 0.134394 3.00238C0.146022 2.99075 0.161188 2.98216 0.174333 2.97205C0.188993 2.95991 0.202138 2.94677 0.218821 2.93716H0.219326L5.07764 0.139966C5.13916 0.104568 5.20889 0.0859375 5.27986 0.0859375C5.35083 0.0859375 5.42056 0.104568 5.48208 0.139966L10.3404 2.93716H10.3414C10.3576 2.94727 10.3712 2.95991 10.3859 2.97154C10.399 2.98165 10.4137 2.99075 10.4253 3.00187C10.4395 3.01653 10.4496 3.03322 10.4617 3.04939C10.4703 3.06153 10.4819 3.07214 10.489 3.08529C10.5007 3.10551 10.5072 3.12674 10.5153 3.14798C10.5194 3.1596 10.5264 3.17022 10.5295 3.18235C10.5388 3.21681 10.5435 3.25233 10.5436 3.28801V13.6816L14.5921 11.3505V6.03718C14.5921 6.0018 14.5971 5.9659 14.6062 5.93203C14.6097 5.9199 14.6163 5.90928 14.6204 5.89765C14.6285 5.87642 14.6355 5.85468 14.6467 5.83496C14.6542 5.82182 14.6654 5.8112 14.674 5.79907C14.6861 5.78289 14.6962 5.76621 14.7104 5.75205C14.722 5.74043 14.7366 5.73183 14.7498 5.72172C14.765 5.70959 14.7781 5.69644 14.7943 5.68684H14.7948L19.6536 2.88964C19.7151 2.85419 19.7848 2.83554 19.8558 2.83554C19.9268 2.83554 19.9965 2.85419 20.058 2.88964L24.9164 5.68684C24.9335 5.69695 24.9467 5.70959 24.9619 5.72122C24.9745 5.73133 24.9892 5.74043 25.0008 5.75155C25.0149 5.76621 25.025 5.78289 25.0372 5.79907C25.0463 5.8112 25.0574 5.82182 25.0645 5.83496C25.0761 5.85468 25.0827 5.87642 25.0908 5.89765C25.0953 5.90928 25.1019 5.9199 25.1049 5.93203ZM24.3092 11.3505V6.73787L22.609 7.71661L20.2603 9.06895V13.6816L24.3097 11.3505H24.3092ZM19.4509 19.6946V15.0789L17.1405 16.3984L10.5431 20.1637V24.8228L19.4509 19.6946ZM0.826489 3.9882V19.6946L9.73323 24.8223V20.1642L5.08017 17.5308L5.07865 17.5298L5.07663 17.5288C5.06096 17.5197 5.04781 17.5065 5.03315 17.4954C5.02052 17.4853 5.00585 17.4772 4.99473 17.4661L4.99372 17.4646C4.98058 17.452 4.97148 17.4363 4.96035 17.4221C4.95024 17.4085 4.93811 17.3968 4.93002 17.3827L4.92952 17.3812C4.92042 17.366 4.91486 17.3478 4.90828 17.3306C4.90171 17.3155 4.89312 17.3013 4.88907 17.2851V17.2846C4.88402 17.2654 4.88301 17.2452 4.88098 17.2255C4.87896 17.2103 4.87492 17.1951 4.87492 17.18V6.31928L2.52665 4.96643L0.826489 3.9887V3.9882ZM5.28037 0.957943L1.23244 3.28801L5.27936 5.61808L9.32677 3.28751L5.27936 0.957943H5.28037ZM7.38547 15.4995L9.73374 14.1477V3.9882L8.03358 4.96694L5.6848 6.31928V16.4788L7.38547 15.4995ZM19.8558 3.70762L15.8084 6.03769L19.8558 8.36776L23.9027 6.03718L19.8558 3.70762ZM19.4509 9.06895L17.1021 7.71661L15.4019 6.73787V11.3505L17.7502 12.7023L19.4509 13.6816V9.06895ZM10.1377 19.4635L16.0743 16.0743L19.0419 14.3807L14.9975 12.0522L10.3409 14.7331L6.09683 17.1764L10.1377 19.4635Z" fill="#f82b1e"/>
</g>
<defs>
<clipPath id="clip0">
<rect width="25.1472" height="26" fill="white" transform="translate(0.0166016)"/>
</clipPath>
</defs>
</svg>
