<svg width="15" height="14" viewBox="0 0 15 14" fill="none" xmlns="http://www.w3.org/2000/svg">
<path d="M8.0166 0C4.1718 0 0.989258 3.12785 0.989258 6.97266C0.989258 10.8175 4.1718 14 8.0166 14C11.8614 14 14.9893 10.8175 14.9893 6.97266C14.9893 3.12785 11.8614 0 8.0166 0ZM8.83691 10.7188C8.83691 11.171 8.46859 11.5391 8.0166 11.5391C7.56434 11.5391 7.19629 11.171 7.19629 10.7188V6.5625C7.19629 6.11023 7.56434 5.74219 8.0166 5.74219C8.46859 5.74219 8.83691 6.11023 8.83691 6.5625V10.7188ZM8.0166 4.10156C7.56434 4.10156 7.19629 3.73352 7.19629 3.28125C7.19629 2.82898 7.56434 2.46094 8.0166 2.46094C8.46859 2.46094 8.83691 2.82898 8.83691 3.28125C8.83691 3.73352 8.46859 4.10156 8.0166 4.10156Z" fill="#1E2532"/>
</svg>
