<svg width="27" height="26" viewBox="0 0 27 26" fill="none" xmlns="http://www.w3.org/2000/svg">
<g clip-path="url(#clip0)">
<g opacity="0.2">
<path d="M20.6648 19.3198C19.0009 19.3198 17.6289 20.6626 17.6289 22.3557C17.6289 24.0196 18.9717 25.3916 20.6648 25.3916C22.3287 25.3916 23.7007 24.0488 23.7007 22.3557C23.6715 20.6918 22.3287 19.3198 20.6648 19.3198Z" fill="#f87b00"/>
</g>
<g opacity="0.4">
<path d="M26.0069 4.84111C25.9485 4.84111 25.861 4.81192 25.7734 4.81192H7.38299L7.09107 2.85612C6.91593 1.57171 5.80666 0.608398 4.49306 0.608398H2.12858C1.48638 0.608398 0.960938 1.13384 0.960938 1.77604C0.960938 2.41825 1.48638 2.94369 2.12858 2.94369H4.49306C4.63902 2.94369 4.75578 3.06045 4.78497 3.20641L6.59482 15.5251C6.82835 17.0722 8.17115 18.2398 9.74747 18.2398H21.891C23.4089 18.2398 24.7225 17.1598 25.0436 15.671L26.941 6.1839C27.0578 5.57089 26.6491 4.95788 26.0069 4.84111Z" fill="#f87b00"/>
</g>
<g opacity="0.2">
<path d="M13.2217 22.2097C13.1633 20.6042 11.8205 19.3198 10.215 19.3198C8.52189 19.4074 7.23748 20.8086 7.29586 22.4725C7.35424 24.078 8.66784 25.3624 10.2734 25.3624H10.3317C11.9956 25.2748 13.3092 23.8736 13.2217 22.2097Z" fill="#f87b00"/>
</g>
</g>
<defs>
<clipPath id="clip0">
<rect width="26" height="26" fill="white" transform="translate(0.960938)"/>
</clipPath>
</defs>
</svg>
