<svg width="28" height="28" viewBox="0 0 28 28" fill="#9EA2AA" xmlns="http://www.w3.org/2000/svg">
	<path transform="translate(-.7,0)" d="M22.5094 16.7322C21.2212 16.7322 20.0155 16.1862 18.9184 15.2973L19.1855 14.0432L19.1973 13.9974C19.4355 12.662 20.1896 10.4195 22.5094 10.4195C24.2492 10.4195 25.6644 11.8373 25.6644 13.5784C25.6592 15.3144 24.244 16.7322 22.5094 16.7322ZM22.5094 7.2186C19.5455 7.2186 17.2479 9.14697 16.3145 12.3177C14.8876 10.1746 13.8088 7.60218 13.1765 5.43555H9.98743V13.746C9.98743 15.3837 8.65341 16.7191 7.01698 16.7191C5.38055 16.7191 4.04784 15.3837 4.04784 13.746V5.43555H0.857459V13.746C0.845677 17.1498 3.61321 19.9435 7.01174 19.9435C10.4103 19.9435 13.1778 17.1498 13.1778 13.746V12.3518C13.7983 13.6465 14.5576 14.953 15.4806 16.1155L13.526 25.3149H16.7924L18.2075 18.6422C19.4486 19.4382 20.8756 19.9369 22.512 19.9369C26.01 19.9369 28.8574 17.0673 28.8574 13.5653C28.8548 10.0699 26.0074 7.2186 22.5094 7.2186Z"/>
</svg>