<svg width="28" height="29" viewBox="0 0 28 29" fill="none" xmlns="http://www.w3.org/2000/svg">
<path d="M21.652 16.6482C20.3638 16.6482 19.158 16.1023 18.061 15.2133L18.328 13.9592L18.3398 13.9134C18.5781 12.578 19.3322 10.3355 21.652 10.3355C23.3918 10.3355 24.807 11.7533 24.807 13.4944C24.8018 15.2304 23.3866 16.6482 21.652 16.6482ZM21.652 7.13462C18.6881 7.13462 16.3905 9.06299 15.4571 12.2337C14.0301 10.0907 12.9514 7.5182 12.3191 5.35156H9.13V13.662C9.13 15.2997 7.79599 16.6351 6.15956 16.6351C4.52313 16.6351 3.19042 15.2997 3.19042 13.662V5.35156H3.74818e-05V13.662C-0.0117448 17.0658 2.75578 19.8595 6.15432 19.8595C9.55286 19.8595 12.3204 17.0658 12.3204 13.662V12.2678C12.9409 13.5625 13.7002 14.869 14.6232 16.0316L12.6686 25.2309H15.9349L17.3501 18.5582C18.5912 19.3542 20.0182 19.853 21.6546 19.853C25.1526 19.853 28 16.9833 28 13.4813C27.9974 9.98593 25.15 7.13462 21.652 7.13462Z" fill="#6FDA44"/>
</svg>
