<svg width="933" height="1179" viewBox="0 0 933 1179" fill="none" xmlns="http://www.w3.org/2000/svg">
<path d="M531.436 302.096V1083.4C531.436 1104.57 516.077 1122.62 495.178 1126L181.477 1176.76C155.236 1181.01 131.434 1160.75 131.434 1134.16V716.155L-218.523 772.761C-244.763 777.005 -268.563 756.745 -268.564 730.164L-268.566 417.582C-268.567 396.411 -253.208 378.367 -232.308 374.985L481.393 259.5M531.436 302.096C531.436 275.514 507.633 255.254 481.393 259.5M531.436 302.096L531.438 458.938L181.479 515.558M481.393 259.5L131.436 316.656L131.436 472.961M131.436 472.961L131.436 160.334C131.436 139.162 146.796 121.118 167.696 117.737L881.39 2.29765C907.63 -1.94661 931.431 18.3135 931.431 44.8942L931.434 357.476C931.434 378.647 916.075 396.691 895.176 400.073L181.479 515.558M131.436 472.961C131.436 499.543 155.239 519.804 181.479 515.558" stroke="#1E2532" stroke-opacity="0.05" stroke-width="2"/>
</svg>
